# xmcd
#
# Track frame offsets:
#	150
#	15317
#	34853
#	53913
#	75043
#	88364
#	107705
#	147019
#	174887
#	200436
#	215511
#	235197
#	250502
#	250815
#
# Disc length: 3664 seconds
#
# Revision: 1
# Processed by: cddbd v1.5.2PL0 Copyright (c) Steve Scherf et al.
# Submitted via: audiograbber 1.83.01
#
DISCID=a80e4e0e
DTITLE=Michael Murphy - Live And Blue
DYEAR=1900
DGENRE=
TTITLE0=Time And Time Again
TTITLE1=If Things Don't Change
TTITLE2=Let Me Love You Baby
TTITLE3=Stranger Blues
TTITLE4=Cut You Loose
TTITLE5=Mary Ann
TTITLE6=Drowning On Dry Land
TTITLE7=Hoochie Coochie Man
TTITLE8=Meet Me With Your Black Drawers On
TTITLE9=Before The Bullets Fly
TTITLE10=Black Betty
TTITLE11=Big Fancy Car
TTITLE12=unkn
TTITLE13=Help Me
EXTD=
EXTT0=
EXTT1=
EXTT2=
EXTT3=
EXTT4=
EXTT5=
EXTT6=
EXTT7=
EXTT8=
EXTT9=
EXTT10=
EXTT11=
EXTT12=
EXTT13=
PLAYORDER=
